# Blender 4.2.1 LTS
# www.blender.org
mtllib asteroids_spaceship.mtl
o Plane
v 1.000000 0.000000 1.257532
v 0.000000 0.000000 -1.515064
v 0.000000 0.000000 -0.986229
v 0.816149 0.000000 1.257532
v 0.744551 0.000000 1.078109
v 0.000000 0.000000 1.078109
v 0.000000 0.000000 1.257532
v 1.000000 0.000000 1.257532
v 0.816149 0.000000 1.257532
v 1.118498 0.000000 1.567450
v 0.956914 0.000000 1.633347
v -1.000000 0.000000 1.257532
v -0.816149 0.000000 1.257532
v -0.744551 0.000000 1.078109
v -1.000000 0.000000 1.257532
v -0.816149 0.000000 1.257532
v -1.118498 0.000000 1.567450
v -0.956914 0.000000 1.633347
vn -0.0000 1.0000 -0.0000
vt 0.908075 0.000000
vt 0.839919 0.064713
vt 0.467644 0.064713
vt 0.500000 0.000000
vt 0.095368 0.809264
vt 1.000000 0.000000
vt 0.000000 1.000000
s 0
f 4/1/1 5/2/1 6/3/1 7/4/1
f 3/5/1 5/2/1 1/6/1 2/7/1
f 5/2/1 4/1/1 1/6/1
f 1/6/1 4/1/1 9/1/1 8/6/1
f 8/6/1 9/1/1 11/1/1 10/6/1
f 13/1/1 7/4/1 6/3/1 14/2/1
f 3/5/1 2/7/1 12/6/1 14/2/1
f 14/2/1 12/6/1 13/1/1
f 12/6/1 15/6/1 16/1/1 13/1/1
f 15/6/1 17/6/1 18/1/1 16/1/1
